PathFileType	4	(X/Y/Z)	C:\Users\GVLAB1\Desktop\Emotion\trc\EMLATRE05.4.trc																																																																																																																									
DataRate	CameraRate	NumFrames	NumMarkers	Units	OrigDataRate	OrigDataStartFrame	OrigNumFrames																																																																																																																					
30	30	8	41	mm	30	152	302																																																																																																																					
Frame#	Time	EMLA_LFHD			EMLA_RFHD			EMLA_LBHD			EMLA_RBHD			EMLA_LFTShould			EMLA_RFTShould			EMLA_LRRShould			EMLA_RRRShould			EMLA_T10			EMLA_STRN			EMLA_TRUN			EMLA_LSHO			EMLA_LUPA			EMLA_LELB			EMLA_LFRM			EMLA_LWRA			EMLA_LWRB			EMLA_LFIN			EMLA_RSHO			EMLA_RUPA			EMLA_RELB			EMLA_RFRM			EMLA_RWRA			EMLA_RWRB			EMLA_RFIN			EMLA_LFWT			EMLA_RFWT			EMLA_LBWT			EMLA_RBWT			EMLA_LHTI			EMLA_LKNE			EMLA_LSHN			EMLA_LANK			EMLA_LHEE			EMLA_LTOE			EMLA_RTHI			EMLA_RKNE			EMLA_RSHN			EMLA_RANK			EMLA_RHEE			EMLA_RTOE		
		X1	Y1	Z1	X2	Y2	Z2	X3	Y3	Z3	X4	Y4	Z4	X5	Y5	Z5	X6	Y6	Z6	X7	Y7	Z7	X8	Y8	Z8	X9	Y9	Z9	X10	Y10	Z10	X11	Y11	Z11	X12	Y12	Z12	X13	Y13	Z13	X14	Y14	Z14	X15	Y15	Z15	X16	Y16	Z16	X17	Y17	Z17	X18	Y18	Z18	X19	Y19	Z19	X20	Y20	Z20	X21	Y21	Z21	X22	Y22	Z22	X23	Y23	Z23	X24	Y24	Z24	X25	Y25	Z25	X26	Y26	Z26	X27	Y27	Z27	X28	Y28	Z28	X29	Y29	Z29	X30	Y30	Z30	X31	Y31	Z31	X32	Y32	Z32	X33	Y33	Z33	X34	Y34	Z34	X35	Y35	Z35	X36	Y36	Z36	X37	Y37	Z37	X38	Y38	Z38	X39	Y39	Z39	X40	Y40	Z40	X41	Y41	Z41
																																																																																																																												
152	0.755	334.10367	1498.8092	-466.20041	182.69339	1448.95044	-527.73157	352.97202	1609.97876	-566.37122	178.96236	1556.22559	-636.15454	414.03522	1372.10046	-635.13849	268.47653	1348.32312	-630.84137	398.65146	1438.10181	-774.97162	242.35342	1414.36072	-768.19342	342.86758	1263.39575	-840.29895	347.73724	1292.45862	-602.23364	351.14288	1187.6217	-594.10822	536.79419	1411.53857	-685.37512	591.93872	1227.05676	-701.87079	600.55566	1079.09448	-701.03052	596.84753	944.63098	-690.29144	514.98645	805.93982	-600.57025	571.65753	783.60443	-662.82349	571.61407	759.8269	-596.81598	140.14137	1377.89246	-686.02142	96.27665	1181.70935	-664.17438	86.16404	1036.48291	-660.9314	99.38132	933.07288	-636.40179	202.1396	822.33282	-500.04837	150.6384	776.94446	-554.16888	150.84216	764.71741	-489.89139	450.48123	969.46893	-621.32178	215.46907	954.61902	-635.73645	434.18326	980.19354	-824.25238	255.95457	992.31818	-823.3252	507.55786	685.3576	-715.71179	526.5025	517.75085	-591.78302	502.51477	339.87408	-639.77228	495.2005	211.12238	-781.47339	420.58731	160.52603	-860.67511	484.92291	75.62688	-694.48712	251.67603	695.64362	-846.69104	242.95425	488.28473	-793.49884	319.08572	272.22198	-804.22504	309.87073	117.32018	-898.0238	372.67035	80.37606	-955.57446	341.8447	53.43136	-757.82501
153	0.76	332.55688	1496.34668	-448.66458	182.19354	1448.2854	-513.52466	354.14822	1608.39624	-547.25494	180.82901	1556.83423	-620.68439	414.66138	1371.05798	-617.64056	268.87347	1347.89453	-615.91211	401.92181	1438.62842	-756.9317	245.51443	1415.52295	-753.23145	346.668	1264.89819	-825.11285	347.34424	1291.31665	-586.71558	350.24426	1186.39185	-579.79132	538.50598	1410.5437	-665.40283	591.1676	1225.95361	-682.008	596.97595	1077.68921	-684.11749	592.44794	943.64801	-673.82196	511.21619	805.6004	-583.27191	567.35834	782.66974	-646.02899	568.57727	760.18671	-579.35394	141.54922	1378.15051	-673.2525	97.52698	1181.33533	-657.18616	87.573	1036.02478	-658.11578	100.36756	932.00653	-636.43976	200.32715	816.90472	-501.70856	150.11539	773.16522	-558.2912	148.75119	758.99597	-494.51935	449.21329	968.69684	-607.62354	214.27422	954.43127	-626.96674	437.04193	980.23187	-810.53796	258.77509	993.51166	-812.82251	505.42435	684.89032	-697.61017	518.52008	518.08002	-570.32935	492.59589	336.24435	-605.742	486.26205	196.04744	-735.62067	412.98663	138.98363	-812.52997	471.97736	71.10676	-636.79517	253.28793	697.22522	-838.5683	242.55057	489.53033	-787.54456	318.31921	273.08704	-800.43347	309.71817	119.74458	-896.66406	372.80884	83.79557	-954.37561	341.51883	52.98569	-757.76245
154	0.765	331.60764	1493.06482	-429.84024	181.67543	1447.03711	-497.25079	355.41663	1606.25171	-526.70551	182.68869	1556.90637	-603.13824	415.28107	1369.73572	-599.20667	269.38315	1347.07458	-599.85095	404.88531	1439.02734	-737.83447	248.38556	1416.51855	-736.86359	350.26044	1266.44885	-809.10394	347.1991	1289.83008	-570.45221	349.54703	1184.74194	-564.83331	540.07245	1409.51709	-644.80725	591.95593	1225.02747	-663.04767	597.02185	1076.85974	-666.04401	591.99579	942.32452	-657.33881	512.60358	804.27319	-565.38617	564.79614	780.26337	-630.22662	568.54865	757.21075	-564.4718	142.88525	1377.97302	-658.99121	98.82935	1180.57227	-649.16406	89.35337	1035.41724	-654.98083	101.02438	930.87128	-637.54889	197.10791	808.90009	-506.22382	147.78616	768.29956	-565.77863	144.9543	751.15955	-502.69568	447.52551	968.21436	-593.28247	213.35612	954.38336	-617.18866	440.01279	980.52234	-796.30548	261.83249	994.49896	-801.862	502.83292	684.69147	-680.22772	509.77393	518.02179	-550.00586	481.42123	333.32806	-570.46747	476.45041	181.40263	-685.93457	404.26889	118.76029	-759.79657	456.35101	67.6376	-576.14667	255.67131	698.57428	-829.85376	242.1888	490.55576	-780.76514	317.47412	273.79025	-796.53729	309.51401	122.31032	-895.13672	373.09067	87.49743	-953.0896	341.06729	52.89783	-757.33191
155	0.77	331.28723	1488.70996	-409.92722	181.64793	1444.70813	-479.4791	356.78406	1603.30994	-504.75693	184.09239	1556.43689	-583.75684	415.93329	1367.88489	-579.78333	269.83054	1345.76733	-582.70697	407.86279	1439.05261	-717.43152	251.22919	1417.1947	-719.0365	353.70471	1267.8302	-792.10419	347.00946	1287.79248	-553.11542	348.97372	1182.62561	-548.98682	541.38226	1407.97546	-622.85345	594.2973	1223.42908	-642.55505	600.71118	1075.58142	-646.46216	595.14227	940.6748	-638.84131	515.35986	802.11621	-547.81366	565.01215	778.26544	-614.27057	569.28345	752.94574	-549.83881	144.35875	1377.31396	-643.37378	100.36436	1179.44348	-639.85022	91.47674	1034.70752	-650.89917	101.32486	929.97595	-638.98914	192.94014	799.04309	-513.2193	143.13643	763.43182	-575.83807	139.8616	742.11536	-514.00037	446.51462	966.98267	-578.10492	212.90283	954.04572	-606.61304	442.88077	980.72137	-781.05786	265.01285	995.58167	-789.68665	499.17477	683.9248	-663.94659	500.91998	517.16077	-531.2702	469.47888	331.26746	-535.0202	465.17514	167.91019	-633.71399	394.37622	99.89367	-703.58252	438.59772	66.00554	-514.09613	258.30835	699.8634	-820.07452	241.9826	491.633	-773.62366	316.56732	274.69934	-792.26404	309.50549	124.8665	-893.49011	373.44043	91.26099	-951.58356	340.39481	52.9194	-756.74518
156	0.775	331.42545	1483.23706	-388.95084	182.07092	1441.40625	-460.36349	358.2565	1599.4574	-481.45908	185.69637	1555.15344	-562.5614	416.55838	1365.39392	-558.87823	270.31717	1344.09241	-564.31494	411.09894	1438.42969	-695.66931	254.38251	1417.33496	-700.16925	357.65799	1268.79871	-774.31921	346.87427	1285.17114	-534.60632	348.29721	1179.99121	-531.94183	542.6604	1405.69238	-599.11475	597.63684	1221.57458	-619.98364	606.14343	1074.1001	-625.26862	600.48895	938.63135	-618.59552	517.32153	799.63037	-530.87152	568.48761	776.45367	-596.81433	569.57965	748.82043	-532.79816	146.12872	1376.49365	-626.69208	101.90205	1178.30615	-629.23059	93.59138	1034.14148	-645.50708	101.27295	929.81079	-640.04791	188.04689	788.43719	-522.44354	137.59743	758.53192	-588.07892	133.72745	732.92401	-527.81982	445.69165	964.70123	-561.56732	211.48129	953.47955	-593.22107	445.68002	980.51434	-764.33832	268.10434	996.41541	-775.74475	495.88489	682.44678	-647.87347	492.80914	514.77759	-514.49493	457.47849	329.76041	-501.02521	452.93634	156.55383	-580.61255	383.61801	82.70803	-645.46185	418.94113	68.3236	-451.62796	260.94031	701.29114	-809.90002	241.87822	492.66748	-766.86322	316.13147	275.5289	-788.29596	309.1994	127.42193	-891.99152	373.77295	94.77847	-950.10895	339.84818	52.78083	-756.27985
157	0.78	331.9245	1477.00208	-366.71066	182.83379	1437.17505	-439.88824	359.88412	1594.70178	-456.95752	187.72063	1552.68103	-539.93451	417.20456	1361.79956	-536.76465	270.96738	1341.58643	-544.94751	414.5997	1436.71741	-672.52435	257.88702	1416.55872	-680.12738	361.93597	1268.19629	-753.73547	346.87308	1281.8324	-514.70618	347.80002	1176.53528	-513.21393	543.96393	1402.56958	-573.92224	601.20673	1219.29102	-595.83167	611.91534	1072.19775	-602.44757	606.42523	936.28076	-597.01892	518.58374	796.47101	-515.99554	573.42371	773.79059	-577.87817	569.40576	744.68451	-514.12793	148.04796	1375.26355	-608.8186	103.61784	1177.05518	-617.42993	95.70354	1033.77661	-638.90527	100.93356	930.35431	-640.64844	182.4482	778.05872	-532.97693	131.33981	754.58325	-601.34589	126.72132	724.71405	-543.11774	444.83365	961.11108	-543.14905	211.33974	951.44598	-579.77069	448.45627	979.50885	-745.66772	271.49139	996.44177	-760.15045	493.77509	679.95807	-631.49579	485.53693	510.4386	-499.77014	446.14151	328.534	-469.74191	440.68365	147.72665	-528.84021	372.53564	68.69628	-587.93439	398.20938	72.13038	-391.82706	263.25208	702.56964	-798.83783	241.99036	493.36115	-759.90253	315.50256	276.12103	-784.25732	308.96448	129.70953	-890.52576	373.9816	97.87577	-948.63348	339.24271	52.69839	-755.86377
158	0.785	332.94473	1469.98669	-343.49738	184.02443	1432.09924	-418.07916	362.01743	1588.88538	-431.8248	190.26537	1548.95691	-516.34467	418.12607	1357.31238	-513.29553	272.17059	1337.52881	-524.72845	418.38699	1433.42627	-648.21161	261.6301	1414.40247	-659.10468	366.38995	1265.96619	-731.68207	346.98602	1277.27222	-493.50372	347.27988	1171.99658	-492.97437	545.56396	1398.1377	-547.52325	604.94122	1215.85339	-570.56653	617.24646	1069.04944	-578.61371	611.83289	932.79987	-574.80511	519.52112	792.16254	-499.98444	577.95343	769.91815	-558.53827	569.65991	739.9054	-495.56046	150.34717	1372.9436	-589.93665	105.4956	1175.00208	-604.59949	97.70886	1032.91162	-631.72821	100.56327	930.91699	-640.29211	176.48534	768.50897	-543.74237	126.94222	751.57678	-613.87347	119.40209	717.71753	-558.48022	443.38916	956.26331	-522.39465	210.90694	948.33984	-564.57764	451.81351	977.02295	-724.66992	275.43149	995.07446	-742.9599	492.42691	675.49042	-614.33972	477.85745	503.95508	-485.3913	436.15762	326.78098	-442.0459	429.77536	141.61107	-482.93958	362.83902	62.68904	-538.78583	378.90967	67.26868	-340.78937	265.84332	702.91901	-786.44153	242.68108	493.00851	-751.87122	315.22495	275.85168	-779.78552	309.06857	131.47099	-889.17542	374.54349	100.34401	-947.38129	338.84586	52.62491	-755.63074
159	0.79	334.51428	1462.11047	-319.37756	185.74403	1426.18042	-395.25302	365.01358	1581.88562	-406.09601	193.35196	1544.35742	-491.82162	419.39822	1351.04724	-488.84576	273.86679	1332.24524	-503.88843	422.88358	1428.9502	-622.85529	266.21368	1411.05603	-636.73804	371.51413	1262.66736	-709.15009	347.33463	1271.40015	-471.34473	346.68481	1166.20776	-471.18771	547.67151	1392.00488	-519.7832	608.45105	1210.19702	-543.86963	621.8609	1063.80823	-554.11987	616.45032	927.30121	-552.34851	520.77301	785.87457	-483.15811	581.51514	764.21405	-539.44733	570.56915	733.32025	-477.44232	153.31233	1369.22339	-570.37634	107.36156	1171.79028	-591.33752	99.06247	1031.34436	-624.5791	100.16223	930.98572	-639.04553	170.24699	760.11591	-553.25372	121.82189	749.34998	-624.57886	112.17159	712.00647	-572.21765	441.97159	951.22015	-500.83365	210.64082	944.28369	-547.86646	455.89026	973.28235	-702.48859	279.24222	991.94916	-724.25305	489.56161	670.37384	-593.64038	471.54178	499.69064	-464.08734	426.49258	322.71417	-420.80472	421.30069	137.59663	-463.59891	356.75204	63.36246	-526.02484	367.57916	55.63663	-324.59854	268.24884	701.63586	-771.63715	243.21873	491.19702	-740.99908	315.58435	274.73572	-774.27667	309.27328	133.00049	-887.04907	375.07632	102.95528	-945.96771	338.68686	52.53486	-755.3631
